<?xml version="1.0" encoding="UTF-8" standalone="no"?>
<svg
   xmlns:dc="http://purl.org/dc/elements/1.1/"
   xmlns:cc="http://creativecommons.org/ns#"
   xmlns:rdf="http://www.w3.org/1999/02/22-rdf-syntax-ns#"
   xmlns:svg="http://www.w3.org/2000/svg"
   xmlns="http://www.w3.org/2000/svg"
   width="2048"
   height="2048"
   id="svg3891"
   version="1.1">
  <defs
     id="defs3893" />
  <metadata
     id="metadata3896">
    <rdf:RDF>
      <cc:Work
         rdf:about="">
        <dc:format>image/svg+xml</dc:format>
        <dc:type
           rdf:resource="http://purl.org/dc/dcmitype/StillImage" />
        <dc:title></dc:title>
      </cc:Work>
    </rdf:RDF>
  </metadata>
  <g
     id="layer1"
     transform="translate(0,995.63783)">
    <path
       id="rect3830"
       style="color:#000000;font-style:normal;font-variant:normal;font-weight:normal;font-stretch:normal;font-size:medium;line-height:normal;font-family:sans-serif;text-indent:0;text-align:start;text-decoration:none;text-decoration-line:none;text-decoration-style:solid;text-decoration-color:#000000;letter-spacing:normal;word-spacing:normal;text-transform:none;writing-mode:lr-tb;direction:ltr;baseline-shift:baseline;text-anchor:start;white-space:normal;clip-rule:nonzero;display:inline;overflow:visible;visibility:visible;opacity:1;isolation:auto;mix-blend-mode:normal;color-interpolation:sRGB;color-interpolation-filters:linearRGB;solid-color:#000000;solid-opacity:1;fill:#000000;fill-opacity:1;fill-rule:nonzero;stroke:none;stroke-width:63.473;stroke-linecap:butt;stroke-linejoin:miter;stroke-miterlimit:4;stroke-dasharray:none;stroke-dashoffset:0;stroke-opacity:1;color-rendering:auto;image-rendering:auto;shape-rendering:auto;text-rendering:auto;enable-background:accumulate"
       d="M 441.30078 273.61133 C 266.57474 273.61133 124.34961 415.83646 124.34961 590.5625 L 124.34961 1457.4395 C 124.34961 1632.1655 266.57474 1774.3906 441.30078 1774.3906 L 1606.6992 1774.3906 C 1781.4253 1774.3906 1923.6504 1632.1655 1923.6504 1457.4395 L 1923.6504 590.5625 C 1923.6504 415.83648 1781.4253 273.61133 1606.6992 273.61133 L 441.30078 273.61133 z M 441.30078 373.61133 L 1606.6992 373.61133 C 1727.755 373.61133 1823.6504 469.50672 1823.6504 590.5625 L 1823.6504 1457.4395 C 1823.6504 1578.4952 1727.755 1674.3906 1606.6992 1674.3906 L 441.30078 1674.3906 C 320.24502 1674.3906 224.34961 1578.4952 224.34961 1457.4395 L 224.34961 590.5625 C 224.34961 469.50674 320.24502 373.61133 441.30078 373.61133 z M 542.16211 1098.2129 L 542.16211 1119.7715 L 542.16211 1568.8945 L 1016.377 1568.8945 L 1016.377 1098.2129 L 542.16211 1098.2129 z M 585.60156 1141.3281 L 972.9375 1141.3281 L 972.9375 1525.7773 L 585.60156 1525.7773 L 585.60156 1141.3281 z M 746.77539 1196.0117 L 746.77539 1228.2637 L 746.77539 1303.1348 L 671.3418 1303.1348 L 638.8457 1303.1348 L 638.8457 1367.6406 L 671.3418 1367.6406 L 746.77539 1367.6406 L 746.77539 1442.5156 L 746.77539 1474.7637 L 811.76367 1474.7637 L 811.76367 1442.5156 L 811.76367 1367.6406 L 887.19727 1367.6406 L 919.69336 1367.6406 L 919.69336 1303.1348 L 887.19727 1303.1348 L 811.76367 1303.1348 L 811.76367 1228.2637 L 811.76367 1196.0117 L 746.77539 1196.0117 z M 1218.0312 1215.3652 C 1204.3777 1215.0869 1190.8556 1218.1339 1178.4355 1225.8652 C 1133.8441 1253.3543 1107.9119 1304.1983 1088.1543 1353.0039 L 1088.1543 1462.5039 C 1112.3835 1420.7904 1132.6642 1374.6026 1168.0547 1341.9414 C 1187.6841 1322.8157 1217.5593 1319.8285 1240.9883 1332.541 C 1289.2094 1357.6414 1321.8842 1405.5575 1366.2617 1436.6211 C 1396.5338 1459.3505 1437.1512 1468.7611 1472.1152 1453.0703 C 1514.8468 1432.2327 1541.5704 1387.5745 1562.3438 1344.6152 L 1562.3438 1228.0859 C 1547.9635 1265.4977 1519.9135 1293.5942 1495.3906 1323.4102 C 1475.0634 1346.9867 1440.3816 1360.9493 1412.4941 1343.9082 C 1366.3232 1312.9555 1329.7074 1268.2431 1282.9023 1238.1582 C 1263.9079 1225.5272 1240.7871 1215.8291 1218.0312 1215.3652 z "
       transform="translate(0,-995.63783)" />
  </g>
</svg>
