<?xml version="1.0" encoding="UTF-8" standalone="no"?>
<svg
   xmlns:dc="http://purl.org/dc/elements/1.1/"
   xmlns:cc="http://creativecommons.org/ns#"
   xmlns:rdf="http://www.w3.org/1999/02/22-rdf-syntax-ns#"
   xmlns:svg="http://www.w3.org/2000/svg"
   xmlns="http://www.w3.org/2000/svg"
   width="2048"
   height="2048"
   id="svg3891"
   version="1.1">
  <defs
     id="defs3893" />
  <metadata
     id="metadata3896">
    <rdf:RDF>
      <cc:Work
         rdf:about="">
        <dc:format>image/svg+xml</dc:format>
        <dc:type
           rdf:resource="http://purl.org/dc/dcmitype/StillImage" />
        <dc:title></dc:title>
      </cc:Work>
    </rdf:RDF>
  </metadata>
  <g
     id="layer1"
     transform="translate(0,995.63783)">
    <path
       id="rect3830"
       style="color:#000000;font-style:normal;font-variant:normal;font-weight:normal;font-stretch:normal;font-size:medium;line-height:normal;font-family:sans-serif;text-indent:0;text-align:start;text-decoration:none;text-decoration-line:none;text-decoration-style:solid;text-decoration-color:#000000;letter-spacing:normal;word-spacing:normal;text-transform:none;direction:ltr;block-progression:tb;writing-mode:lr-tb;baseline-shift:baseline;text-anchor:start;white-space:normal;clip-rule:nonzero;display:inline;overflow:visible;visibility:visible;opacity:1;isolation:auto;mix-blend-mode:normal;color-interpolation:sRGB;color-interpolation-filters:linearRGB;solid-color:#000000;solid-opacity:1;fill:#000000;fill-opacity:1;fill-rule:nonzero;stroke:none;stroke-width:63.473;stroke-linecap:butt;stroke-linejoin:miter;stroke-miterlimit:4;stroke-dasharray:none;stroke-dashoffset:0;stroke-opacity:1;color-rendering:auto;image-rendering:auto;shape-rendering:auto;text-rendering:auto;enable-background:accumulate"
       d="M 441.30859 273.61133 C 416.50887 273.60676 391.68445 276.45448 367.41797 282.22266 L 390.54492 379.51172 C 407.06648 375.58451 424.1707 373.60817 441.29102 373.61133 L 441.30859 273.61133 z M 521.30078 273.61133 L 521.30078 373.61133 L 621.30078 373.61133 L 621.30078 273.61133 L 521.30078 273.61133 z M 721.30078 273.61133 L 721.30078 373.61133 L 821.30078 373.61133 L 821.30078 273.61133 L 721.30078 273.61133 z M 921.30078 273.61133 L 921.30078 373.61133 L 1021.3008 373.61133 L 1021.3008 273.61133 L 921.30078 273.61133 z M 1121.3008 273.61133 L 1121.3008 373.61133 L 1221.3008 373.61133 L 1221.3008 273.61133 L 1121.3008 273.61133 z M 1321.3008 273.61133 L 1321.3008 373.61133 L 1421.3008 373.61133 L 1421.3008 273.61133 L 1321.3008 273.61133 z M 1521.3008 273.61133 L 1521.3008 373.61133 L 1606.6992 373.61133 C 1610.7046 373.61226 1614.6734 373.71775 1618.5957 373.92969 L 1623.9902 274.07422 C 1618.1965 273.76116 1612.4336 273.61242 1606.709 273.61133 A 50.005 50.005 0 0 0 1606.6992 273.61133 L 1521.3008 273.61133 z M 1738.5918 302.12305 L 1697.1289 393.12305 C 1721.6685 404.30388 1744.2502 420.30115 1763.0039 439.75781 L 1835.0039 370.35938 C 1807.4882 341.81227 1774.7283 318.58768 1738.5918 302.12305 z M 259.66016 330.53125 C 227.13041 353.22924 199.07396 381.93988 177.13477 414.98828 L 260.44922 470.29688 C 275.38584 447.79691 294.73353 427.99593 316.88281 412.54102 L 259.66016 330.53125 z M 1899.6699 469.09766 L 1807.2734 507.34766 C 1817.5711 532.22231 1823.1441 559.34205 1823.6133 586.44531 L 1923.5977 584.71484 C 1922.9129 545.15985 1914.879 505.83604 1899.6699 469.09766 z M 131.34961 523.83203 C 129.90939 530.57567 128.70578 537.33662 127.7168 544.10156 C 122.51998 578.14585 124.54846 608.3051 124.35156 633.4707 L 224.34766 634.25391 C 224.57915 604.66635 223.46607 579.38879 226.58789 559.05273 A 50.005 50.005 0 0 0 226.64453 558.67383 C 227.33031 553.96705 228.16161 549.31007 229.14258 544.7168 L 131.34961 523.83203 z M 1823.6504 685.58008 L 1823.6504 785.58008 L 1923.6504 785.58008 L 1923.6504 685.58008 L 1823.6504 685.58008 z M 124.34961 733.86328 L 124.34961 833.86328 L 224.34961 833.86328 L 224.34961 733.86328 L 124.34961 733.86328 z M 1823.6504 885.58008 L 1823.6504 985.58008 L 1923.6504 985.58008 L 1923.6504 885.58008 L 1823.6504 885.58008 z M 124.34961 933.86328 L 124.34961 1033.8633 L 224.34961 1033.8633 L 224.34961 933.86328 L 124.34961 933.86328 z M 677.54297 1043.6445 L 677.54297 1075.3809 L 677.54297 1736.5586 L 698.14062 1736.5586 L 698.14062 1774.3906 L 798.14062 1774.3906 L 798.14062 1736.5586 L 898.14062 1736.5586 L 898.14062 1774.3906 L 998.14062 1774.3906 L 998.14062 1736.5586 L 1098.1406 1736.5586 L 1098.1406 1774.3906 L 1198.1406 1774.3906 L 1198.1406 1736.5586 L 1298.1406 1736.5586 L 1298.1406 1774.3906 L 1398.1406 1774.3906 L 1398.1406 1674.3906 L 1370.457 1674.3906 L 1370.457 1043.6445 L 677.54297 1043.6445 z M 1823.6504 1085.5801 L 1823.6504 1185.5801 L 1923.6504 1185.5801 L 1923.6504 1085.5801 L 1823.6504 1085.5801 z M 741.01562 1107.1172 L 1306.9844 1107.1172 L 1306.9844 1673.0859 L 741.01562 1673.0859 L 741.01562 1107.1172 z M 124.34961 1133.8633 L 124.34961 1233.8633 L 224.34961 1233.8633 L 224.34961 1133.8633 L 124.34961 1133.8633 z M 976.52148 1187.6191 L 976.52148 1235.0996 L 976.52148 1345.3203 L 866.29688 1345.3203 L 818.81641 1345.3203 L 818.81641 1440.2832 L 866.29688 1440.2832 L 976.52148 1440.2832 L 976.52148 1550.5098 L 976.52148 1597.9844 L 1071.4785 1597.9844 L 1071.4785 1550.5098 L 1071.4785 1440.2832 L 1181.7031 1440.2832 L 1229.1836 1440.2832 L 1229.1836 1345.3203 L 1181.7031 1345.3203 L 1071.4785 1345.3203 L 1071.4785 1235.0996 L 1071.4785 1187.6191 L 976.52148 1187.6191 z M 1823.6504 1285.5801 L 1823.6504 1385.5801 L 1923.6504 1385.5801 L 1923.6504 1285.5801 L 1823.6504 1285.5801 z M 124.34961 1333.8633 L 124.34961 1433.8633 L 224.34961 1433.8633 L 224.34961 1333.8633 L 124.34961 1333.8633 z M 1822.4648 1480.4141 C 1819.7003 1507.2896 1811.7853 1533.7915 1799.3496 1557.6953 L 1888.0625 1603.8457 C 1906.4014 1568.5947 1917.8816 1530.0955 1921.9395 1490.6465 L 1822.4648 1480.4141 z M 233.07031 1518.8652 L 137.06055 1546.8301 C 148.17057 1584.9725 166.47796 1620.7424 190.83398 1652.0625 L 269.77539 1590.6738 C 253.20227 1569.362 240.60703 1544.7399 233.07031 1518.8652 z M 1749.3574 1621.2109 C 1729.0037 1638.9628 1705.1276 1652.9308 1679.7188 1661.9219 L 1713.0762 1756.1953 C 1750.5249 1742.9439 1785.1954 1722.6454 1815.0879 1696.5742 L 1749.3574 1621.2109 z M 330.38867 1644.168 L 279.29883 1730.1328 C 313.44356 1750.4256 351.23646 1764.0863 390.43164 1770.3496 L 406.21094 1671.6035 C 379.56591 1667.3457 353.56296 1657.9408 330.38867 1644.168 z M 498.14062 1674.3906 L 498.14062 1774.3906 L 598.14062 1774.3906 L 598.14062 1674.3906 L 498.14062 1674.3906 z M 1498.1406 1674.3906 L 1498.1406 1774.3906 L 1598.1406 1774.3906 L 1598.1406 1674.3906 L 1498.1406 1674.3906 z "
       transform="translate(0,-995.63783)" />
  </g>
</svg>
