<?xml version="1.0" encoding="UTF-8" standalone="no"?>
<svg
   xmlns:dc="http://purl.org/dc/elements/1.1/"
   xmlns:cc="http://creativecommons.org/ns#"
   xmlns:rdf="http://www.w3.org/1999/02/22-rdf-syntax-ns#"
   xmlns:svg="http://www.w3.org/2000/svg"
   xmlns="http://www.w3.org/2000/svg"
   width="2048"
   height="2048"
   id="svg3891"
   version="1.1">
  <defs
     id="defs3893" />
  <metadata
     id="metadata3896">
    <rdf:RDF>
      <cc:Work
         rdf:about="">
        <dc:format>image/svg+xml</dc:format>
        <dc:type
           rdf:resource="http://purl.org/dc/dcmitype/StillImage" />
        <dc:title></dc:title>
      </cc:Work>
    </rdf:RDF>
  </metadata>
  <g
     id="layer1"
     transform="translate(0,995.63783)">
    <path
       id="rect3830"
       style="color:#000000;font-style:normal;font-variant:normal;font-weight:normal;font-stretch:normal;font-size:medium;line-height:normal;font-family:sans-serif;text-indent:0;text-align:start;text-decoration:none;text-decoration-line:none;text-decoration-style:solid;text-decoration-color:#000000;letter-spacing:normal;word-spacing:normal;text-transform:none;writing-mode:lr-tb;direction:ltr;baseline-shift:baseline;text-anchor:start;white-space:normal;clip-rule:nonzero;display:inline;overflow:visible;visibility:visible;opacity:1;isolation:auto;mix-blend-mode:normal;color-interpolation:sRGB;color-interpolation-filters:linearRGB;solid-color:#000000;solid-opacity:1;fill:#000000;fill-opacity:1;fill-rule:nonzero;stroke:none;stroke-width:63.4726;stroke-linecap:butt;stroke-linejoin:miter;stroke-miterlimit:4;stroke-dasharray:none;stroke-dashoffset:0;stroke-opacity:1;color-rendering:auto;image-rendering:auto;shape-rendering:auto;text-rendering:auto;enable-background:accumulate"
       d="M 441.30078 273.61133 C 266.57474 273.61133 124.34961 415.83646 124.34961 590.5625 L 124.34961 1457.4395 C 124.34961 1632.1655 266.57474 1774.3906 441.30078 1774.3906 L 1606.6992 1774.3906 C 1781.4253 1774.3906 1923.6504 1632.1655 1923.6504 1457.4395 L 1923.6504 590.5625 C 1923.6504 415.83648 1781.4253 273.61133 1606.6992 273.61133 L 441.30078 273.61133 z M 441.30078 373.61133 L 1606.6992 373.61133 C 1727.755 373.61133 1823.6504 469.50672 1823.6504 590.5625 L 1823.6504 1457.4395 C 1823.6504 1578.4952 1727.755 1674.3906 1606.6992 1674.3906 L 441.30078 1674.3906 C 320.24502 1674.3906 224.34961 1578.4952 224.34961 1457.4395 L 224.34961 590.5625 C 224.34961 469.50674 320.24502 373.61133 441.30078 373.61133 z M 494.26953 455.40234 L 440.36914 455.4082 A 50.005 50.005 0 0 0 440.17578 455.4082 C 438.95986 455.41306 438.15671 455.43532 436.72266 455.48438 A 50.005 50.005 0 0 0 436.61133 455.48633 C 434.11301 455.56959 432.43053 455.66938 431.08203 455.77734 C 430.74249 455.80404 430.4042 455.82955 430.06445 455.85352 C 430.06213 455.85377 430.02448 455.85525 430.02148 455.85547 A 50.005 50.005 0 0 0 418.98828 458.06836 C 418.98669 458.06719 418.85637 457.97136 418.85547 457.9707 C 419.28529 457.85501 422.87286 456.88709 423.69531 456.7207 C 427.18153 456.0154 426.80957 456.19047 427.19531 456.14062 C 428.7383 455.94124 428.2897 456.013 428.33984 456.00781 C 428.44013 455.99742 428.24218 456.01677 428.01758 456.03906 C 427.56837 456.08364 426.84556 456.15463 426.06641 456.23438 A 50.005 50.005 0 0 0 425.4082 456.30664 C 421.37435 456.77355 417.48852 457.56788 413.59375 458.36133 C 413.30506 458.39386 412.80152 458.43397 412.68359 458.45312 C 411.12824 458.70591 410.903 458.77322 410.58984 458.83789 C 409.96353 458.96723 409.83638 459.0005 409.69141 459.0332 C 409.6175 459.04987 409.62602 459.04721 409.57617 459.05859 C 409.56398 459.06147 409.55126 459.06353 409.53906 459.06641 C 409.46456 459.0839 409.38899 459.10179 409.31445 459.11914 C 409.29988 459.12257 409.25429 459.13342 409.24023 459.13672 A 50.005 50.005 0 0 0 402.07422 461.50586 C 402.07419 461.50567 402.06055 461.41016 402.06055 461.41016 C 402.06049 461.41019 404.49814 460.50388 404.49805 460.50391 C 404.49787 460.50397 405.97742 460.02106 406.33398 459.91406 C 407.04711 459.70007 407.28733 459.63777 407.49805 459.58008 C 407.91949 459.46469 408.0407 459.43517 408.15234 459.40625 C 408.37563 459.3484 408.42772 459.33551 408.47266 459.32422 C 408.65241 459.27905 408.51268 459.31365 408.40625 459.33984 C 408.19339 459.39223 407.9731 459.44646 407.61523 459.53516 A 50.005 50.005 0 0 0 407.13086 459.6582 C 402.21328 460.92937 397.51727 462.41447 393.00391 464.12305 A 50.005 50.005 0 0 0 392.86328 464.17578 C 389.86684 465.32032 387.28738 466.39499 384.40234 467.72656 A 50.005 50.005 0 0 0 383.86523 467.97852 L 384.31445 467.76953 C 381.32227 469.14779 379.06166 470.28433 376.12695 471.89258 A 50.005 50.005 0 0 0 375.95312 471.98828 L 376.04883 471.9375 C 359.37004 481.06248 345.45968 493.00203 333.85547 508.16797 A 50.005 50.005 0 0 0 333.80859 508.23047 C 332.27168 510.23649 330.96685 512.03874 329.5332 514.13672 L 329.73242 513.84375 A 50.005 50.005 0 0 0 329.5 514.18164 C 323.55828 522.86844 318.85185 531.84139 315.07227 541.7168 A 50.005 50.005 0 0 0 315.0293 541.83008 C 315.02602 541.83862 315.02087 541.85274 315.01758 541.86133 A 50.005 50.005 0 0 0 314.99609 541.91992 C 314.47779 543.27392 313.83381 545.05691 313.23242 546.83594 L 313.23047 546.84375 L 313.19531 546.94531 A 50.005 50.005 0 0 0 313.17773 546.99805 C 311.4736 552.04026 310.18579 556.75327 309.06836 562.09375 A 50.005 50.005 0 0 0 309.04883 562.19141 C 308.64987 564.0907 308.34248 566.15196 308.01172 568.17578 A 50.005 50.005 0 0 0 307.48242 571.16992 C 307.47194 571.24222 307.67646 570.11143 307.81445 569.31055 C 307.69887 570.05706 307.53973 570.74775 307.43555 571.50195 A 50.005 50.005 0 0 0 307.42773 571.55469 C 307.14972 573.57949 306.936 575.53934 306.77344 577.24414 A 50.005 50.005 0 0 0 306.72461 577.77734 C 306.58323 579.44916 306.45524 581.02927 306.34375 582.90039 A 50.005 50.005 0 0 0 306.3418 582.93945 C 306.26982 584.16281 306.22287 585.3542 306.19922 586.77344 L 306.19922 586.67578 L 306.19531 586.89062 A 50.005 50.005 0 0 0 306.19531 586.92578 C 306.06959 593.94486 306.17905 602.1708 306.13672 612.98047 A 50.005 50.005 0 0 0 306.13672 613.17578 C 306.14072 894.80092 306.13353 1176.4209 306.14453 1458.0371 A 50.005 50.005 0 0 0 306.14453 1458.2715 C 306.21621 1473.4209 308.5801 1487.5861 313.34961 1501.5293 A 50.005 50.005 0 0 0 313.37891 1501.6113 C 315.21463 1506.99 317.44958 1512.2535 319.94727 1517.332 C 320.06407 1517.5905 320.20534 1517.9056 320.27148 1518.0469 C 320.52323 1518.5848 320.37245 1518.2532 320.46484 1518.4453 C 320.52878 1518.5723 320.58021 1518.7073 320.64453 1518.834 C 320.6469 1518.8387 320.64998 1518.843 320.65234 1518.8477 C 320.65681 1518.8565 320.65959 1518.8662 320.66406 1518.875 C 320.74271 1519.0303 320.82043 1519.1862 320.89844 1519.3418 C 320.89999 1519.3448 320.91587 1519.3767 320.91797 1519.3809 A 50.005 50.005 0 0 0 323.22656 1523.3613 C 322.93386 1522.9178 322.56641 1522.3819 322.48633 1522.2461 C 321.94046 1521.3203 321.78464 1521.0383 321.66992 1520.8281 A 50.005 50.005 0 0 0 321.79883 1521.0762 C 324.4355 1526.0455 327.4276 1530.8899 330.77148 1535.627 C 330.79541 1535.6634 330.91565 1535.8537 330.92383 1535.8652 C 330.97403 1535.9363 330.9493 1535.8986 330.98242 1535.9453 C 331.12408 1536.1449 331.19516 1536.2448 331.22852 1536.291 C 331.31082 1536.405 331.3351 1536.4383 331.36719 1536.4824 C 331.38143 1536.502 331.38917 1536.5112 331.40234 1536.5293 A 50.005 50.005 0 0 0 331.59375 1536.7852 A 50.005 50.005 0 0 0 331.81641 1537.0996 C 331.81904 1537.1032 331.83184 1537.1201 331.83398 1537.123 L 331.83203 1537.123 C 331.90189 1537.2175 331.97142 1537.3116 332.04102 1537.4062 C 332.0766 1537.4547 332.09984 1537.4799 332.13477 1537.5273 C 332.18332 1537.5918 332.13042 1537.5239 332.21289 1537.6328 C 332.22704 1537.6515 332.31645 1537.7632 332.32812 1537.7793 C 333.4928 1539.3588 334.35091 1540.5011 335.54688 1541.9883 A 50.005 50.005 0 0 0 335.63867 1542.1016 C 335.67277 1542.1437 335.70619 1542.1863 335.74023 1542.2285 C 335.74285 1542.2318 335.74738 1542.235 335.75 1542.2383 C 336.26809 1542.8856 336.97474 1543.6341 337.53125 1544.3008 A 50.005 50.005 0 0 0 340.66992 1548.0801 L 342.27148 1549.7871 L 342.51758 1550.0508 A 50.005 50.005 0 0 0 342.65039 1550.1875 A 50.005 50.005 0 0 0 342.65234 1550.1895 A 50.005 50.005 0 0 0 342.98242 1550.541 C 342.98949 1550.5483 342.99684 1550.5552 343.00391 1550.5625 C 343.2624 1550.8283 343.51922 1551.0952 343.77539 1551.3633 A 50.005 50.005 0 0 0 343.79688 1551.3867 C 343.87043 1551.4636 343.96898 1551.5501 344.04297 1551.627 C 344.06445 1551.6487 344.07906 1551.6647 344.10156 1551.6875 C 344.20652 1551.7938 344.29766 1551.8859 344.62891 1552.2129 C 344.72982 1552.3125 345.04398 1552.6112 345.26758 1552.8262 C 346.62681 1554.199 347.96221 1555.5483 349.625 1557.0879 A 50.005 50.005 0 0 0 349.7793 1557.2285 C 349.58415 1557.0443 349.29291 1556.7629 348.46484 1555.9141 C 348.31557 1555.7611 347.87998 1555.2504 347.42188 1554.7324 C 347.4544 1554.7606 347.47278 1554.7766 347.50781 1554.8066 A 50.005 50.005 0 0 0 351.24609 1558.5547 C 351.24784 1558.5562 351.2502 1558.5571 351.25195 1558.5586 C 351.38663 1558.6766 351.52012 1558.7955 351.6543 1558.9141 A 50.005 50.005 0 0 0 351.66016 1558.918 C 351.79713 1559.0389 351.9466 1559.1413 352.08398 1559.2617 C 352.21526 1559.3778 351.78606 1559.041 352.75391 1559.8262 C 352.91856 1559.9597 353.32052 1560.2707 353.62891 1560.5117 C 357.6726 1563.9518 361.91769 1567.1016 366.32031 1570.0312 A 50.005 50.005 0 0 0 369.83789 1572.4492 L 369.96289 1572.5254 C 369.97238 1572.5311 369.971 1572.5294 369.98047 1572.5352 L 370.56445 1572.8906 L 370.57227 1572.8965 L 370.68555 1572.9648 A 50.005 50.005 0 0 0 370.74805 1573.002 A 50.005 50.005 0 0 0 371.36328 1573.3809 C 371.3711 1573.3854 371.3789 1573.39 371.38672 1573.3945 C 371.64571 1573.5458 371.90419 1573.6965 372.16211 1573.8496 A 50.005 50.005 0 0 0 372.18555 1573.8633 C 372.19693 1573.87 372.20932 1573.8741 372.2207 1573.8809 C 372.22982 1573.8863 372.23893 1573.8911 372.24805 1573.8965 C 372.29481 1573.9244 372.01927 1573.7698 372.75586 1574.1914 C 372.85287 1574.2469 372.94628 1574.3026 373.35156 1574.5273 C 373.55421 1574.6397 373.74074 1574.7505 374.61914 1575.2051 C 374.72153 1575.2581 375.02199 1575.3976 375.2832 1575.5234 C 388.20507 1582.7477 401.77505 1587.726 416.36523 1590.3652 A 50.005 50.005 0 0 0 416.43164 1590.377 C 416.43299 1590.3772 416.4342 1590.3767 416.43555 1590.377 C 418.57379 1590.7648 420.39662 1591.0492 422.48633 1591.3359 A 50.005 50.005 0 0 0 422.70898 1591.3672 C 425.92919 1591.7943 428.70597 1592.0772 431.78906 1592.2773 C 431.91811 1592.2858 432.04676 1592.2958 432.17578 1592.3047 A 50.005 50.005 0 0 0 432.20898 1592.3066 C 434.84875 1592.4866 435.6688 1592.487 437.49805 1592.5391 A 50.005 50.005 0 0 0 438.30859 1592.5547 C 445.16912 1592.6385 453.02713 1592.5712 462.84961 1592.5996 A 50.005 50.005 0 0 0 462.99414 1592.5996 C 844.45503 1592.5976 1225.9076 1592.6135 1607.3574 1592.5977 A 50.005 50.005 0 0 0 1607.5078 1592.5977 C 1609.7718 1592.5908 1611.0332 1592.5323 1613.1738 1592.4453 A 50.005 50.005 0 0 0 1613.5898 1592.4258 C 1620.309 1592.0969 1626.859 1591.142 1633.3398 1589.873 A 50.005 50.005 0 0 0 1638.8301 1588.8633 L 1640.1875 1588.5176 L 1640.1953 1588.5156 L 1640.3926 1588.4648 A 50.005 50.005 0 0 0 1641.0957 1588.2715 C 1641.0968 1588.2712 1641.0986 1588.2698 1641.0996 1588.2695 A 50.005 50.005 0 0 0 1641.1016 1588.2695 A 50.005 50.005 0 0 0 1642.3887 1587.9453 C 1642.397 1587.943 1642.4061 1587.9397 1642.4141 1587.9375 C 1642.4361 1587.9313 1642.4584 1587.9261 1642.4805 1587.9199 C 1642.8266 1587.8224 1643.1726 1587.7255 1643.5195 1587.6309 L 1643.5371 1587.627 C 1644.732 1587.3016 1645.1012 1587.1923 1646.2637 1586.8398 L 1646.2773 1586.8359 L 1646.5801 1586.7441 L 1646.5234 1586.7598 C 1649.5978 1585.8338 1652.0009 1584.9998 1655.002 1583.875 A 50.005 50.005 0 0 0 1655.2344 1583.7871 C 1668.5821 1578.7082 1680.6725 1571.6632 1691.7969 1562.6523 C 1692.1015 1562.4323 1692.2711 1562.3421 1692.5039 1562.1602 A 50.005 50.005 0 0 0 1693.8887 1561.0352 L 1693.3477 1561.4824 C 1693.2176 1561.5888 1693.0132 1561.7118 1692.8496 1561.8379 C 1693.1922 1561.5549 1693.5558 1561.3143 1693.8965 1561.0273 A 50.005 50.005 0 0 0 1694.1465 1560.8184 C 1694.5214 1560.4987 1694.8048 1560.2546 1695.0527 1560.041 C 1694.8408 1560.2147 1694.9229 1560.1534 1694.3164 1560.6426 C 1694.02 1560.8816 1691.9665 1562.426 1691.9668 1562.4258 C 1691.9669 1562.4257 1689.375 1564.1543 1689.375 1564.1543 C 1689.375 1564.1543 1689.3205 1564.0668 1689.3203 1564.0664 A 50.005 50.005 0 0 0 1696.1133 1559.1211 C 1696.125 1559.1107 1696.1912 1559.0516 1696.2012 1559.043 C 1696.2729 1558.9789 1696.3441 1558.9155 1696.416 1558.8516 C 1696.4721 1558.8021 1696.5261 1558.7488 1696.582 1558.6992 C 1696.657 1558.631 1696.6004 1558.684 1696.7285 1558.5664 C 1696.7749 1558.5239 1696.9054 1558.4003 1696.9668 1558.3438 C 1698.1207 1557.3107 1699.2538 1556.2722 1700.4062 1555.1719 A 50.005 50.005 0 0 0 1700.5527 1555.0332 C 1707.7798 1548.0775 1714.0896 1540.5132 1719.5449 1532.2617 A 50.005 50.005 0 0 0 1719.5703 1532.2246 L 1719.6348 1532.127 C 1720.9666 1530.1181 1721.559 1529.1826 1722.8145 1527.0762 L 1722.8184 1527.0723 A 50.005 50.005 0 0 0 1722.8965 1526.9395 C 1724.8266 1523.7103 1726.4997 1520.3183 1728.1582 1516.9121 A 50.005 50.005 0 0 0 1728.168 1516.8926 A 50.005 50.005 0 0 0 1730.7383 1511.7109 L 1731.5703 1509.6875 A 50.005 50.005 0 0 0 1731.625 1509.5488 A 50.005 50.005 0 0 0 1731.8438 1509.0293 C 1731.8551 1509.0005 1731.8623 1508.9821 1731.873 1508.9551 C 1731.9647 1508.723 1732.0554 1508.4913 1732.1484 1508.2598 C 1732.1565 1508.2398 1732.1619 1508.2172 1732.1699 1508.1973 C 1732.2289 1508.0472 1732.2773 1507.9313 1732.3633 1507.709 C 1732.4214 1507.5588 1732.4529 1507.4886 1732.709 1506.7891 C 1732.7339 1506.721 1732.9188 1506.1124 1732.9355 1506.0918 C 1733.735 1504.001 1734.5261 1501.9288 1735.2715 1499.6543 A 50.005 50.005 0 0 0 1735.3398 1499.4453 C 1737.2486 1493.5331 1738.6175 1488.0739 1739.7441 1481.7207 A 50.005 50.005 0 0 0 1739.7539 1481.6641 C 1740.2741 1478.7107 1740.6771 1475.912 1740.9863 1473.1387 A 50.005 50.005 0 0 0 1740.9883 1473.1191 C 1741.0071 1472.9497 1741.0254 1472.7807 1741.0449 1472.6113 A 50.005 50.005 0 0 0 1741.3496 1467.9727 C 1741.3018 1468.2805 1741.2104 1468.7547 1741.1035 1469.3633 A 50.005 50.005 0 0 0 1741.3535 1467.7031 A 50.005 50.005 0 0 0 1741.3555 1467.5566 C 1741.3556 1467.573 1741.3594 1467.64 1741.3594 1467.6543 A 50.005 50.005 0 0 0 1741.7305 1463.5684 C 1741.7308 1463.5578 1741.732 1463.5064 1741.7324 1463.4961 C 1741.7354 1463.4098 1741.739 1463.3245 1741.7422 1463.2383 L 1741.7422 1463.2266 C 1741.746 1463.1274 1741.7405 1463.0004 1741.7441 1462.9023 C 1741.751 1462.7002 1741.758 1462.7018 1741.7617 1462.0488 C 1741.7619 1462.0196 1741.7509 1461.8463 1741.75 1461.7988 C 1741.9226 1456.3349 1741.8466 1452.4382 1741.8613 1443.0977 A 50.005 50.005 0 0 0 1741.8613 1443.0195 C 1741.8713 1158.8247 1741.8613 874.62564 1741.8613 590.42188 A 50.005 50.005 0 0 0 1741.8594 590.16406 C 1741.8502 588.38042 1741.769 586.77119 1741.707 585.12305 A 50.005 50.005 0 0 0 1741.6191 582.23438 A 50.005 50.005 0 0 0 1741.6172 582.17188 C 1741.4341 579.12198 1741.1296 576.05546 1740.7422 572.93359 C 1740.7399 572.90673 1740.73 572.71941 1740.7285 572.70703 C 1740.7122 572.57341 1740.7092 572.5586 1740.6992 572.48047 C 1740.6844 572.36464 1740.665 572.21034 1740.6562 572.14453 C 1740.6271 571.92412 1740.6135 571.82657 1740.5996 571.72656 C 1740.5719 571.52655 1740.5489 571.37487 1740.5293 571.23633 C 1740.5097 571.09778 1740.492 570.97139 1740.4883 570.94531 C 1740.4864 570.93227 1740.4152 570.38117 1740.543 571.34766 C 1740.5589 571.46848 1740.5635 571.42352 1740.668 572.36133 C 1740.7071 572.71276 1740.5817 571.71999 1740.5117 571.1582 A 50.005 50.005 0 0 0 1740.4629 570.76758 A 50.005 50.005 0 0 0 1740.4512 570.68164 C 1740.4498 570.67222 1740.4486 570.66564 1740.4473 570.65625 C 1740.4411 570.61439 1740.4412 570.60892 1740.4102 570.4043 C 1740.4077 570.38784 1740.3768 570.21328 1740.3633 570.13281 C 1740.2056 569.08981 1740.0503 568.1067 1739.9004 567.20312 A 50.005 50.005 0 0 0 1739.7383 566.27734 C 1739.6361 565.72603 1739.527 565.14041 1739.4727 564.8457 C 1739.4455 564.69835 1739.4067 564.46559 1739.4922 564.96094 C 1739.5136 565.08477 1739.5381 565.21366 1739.627 565.78906 C 1739.6714 566.07676 1739.728 566.3644 1739.8672 567.54297 C 1739.8908 567.74298 1739.9351 568.47598 1739.9668 568.74609 C 1739.9665 568.74614 1739.928 568.75386 1739.9277 568.75391 A 50.005 50.005 0 0 0 1739.3047 563.96875 C 1739.3047 563.96866 1739.3066 563.93555 1739.3066 563.93555 L 1739.2988 563.93945 A 50.005 50.005 0 0 0 1739.2988 563.93555 C 1739.2984 563.93551 1736.5668 563.72596 1736.3965 563.71289 L 1738.9473 563.17383 C 1738.9699 563.22183 1739.2921 563.90434 1739.293 563.90625 A 50.005 50.005 0 0 0 1739.1602 563.20312 C 1739.1574 563.19022 1739.1472 563.14585 1739.1445 563.13281 L 1739.1465 563.13281 C 1739.1095 562.95808 1739.0714 562.78231 1739.0352 562.60742 C 1739.0222 562.54398 1739.0033 562.48139 1738.9902 562.41797 C 1738.975 562.35028 1738.9801 562.37086 1738.9609 562.28711 C 1738.9395 562.19318 1738.8521 561.85659 1738.8242 561.73438 C 1737.6146 556.02646 1736.0487 550.3779 1734.0566 544.76758 A 50.005 50.005 0 0 0 1734.0195 544.66406 C 1733.5316 543.29945 1733.4233 542.97821 1732.7656 541.28711 L 1732.7637 541.2793 A 50.005 50.005 0 0 0 1732.7305 541.19531 C 1730.2729 534.86213 1727.3453 528.77545 1723.959 522.88086 A 50.005 50.005 0 0 0 1723.7383 522.5 C 1722.6955 520.72127 1722.1548 519.77676 1720.7793 517.63281 A 50.005 50.005 0 0 0 1720.709 517.52344 L 1720.7031 517.51562 C 1718.4779 514.0413 1716.1152 510.69183 1713.623 507.48438 A 50.005 50.005 0 0 0 1713.5879 507.43945 C 1707.1234 499.11329 1699.9626 491.82476 1691.6914 485.16016 A 50.005 50.005 0 0 0 1691.6113 485.0957 C 1685.899 480.48637 1680.0359 476.4985 1673.5039 472.80078 A 50.005 50.005 0 0 0 1673.4941 472.79492 L 1673.4492 472.76953 C 1669.9639 470.79431 1666.318 468.94605 1662.4785 467.21875 A 50.005 50.005 0 0 0 1662.416 467.18945 C 1660.4102 466.28572 1659.2752 465.80808 1657.3145 465.02734 A 50.005 50.005 0 0 0 1657.1719 464.96875 C 1647.562 461.12914 1637.8771 458.50712 1627.5527 456.96094 A 50.005 50.005 0 0 0 1627.5039 456.95508 C 1627.4024 456.93998 1627.3007 456.92354 1627.1992 456.9082 C 1624.5616 456.50559 1623.2442 456.36016 1620.7422 456.10352 A 50.005 50.005 0 0 0 1620.5078 456.08008 C 1617.1603 455.75268 1614.2946 455.58195 1611.2031 455.48242 A 50.005 50.005 0 0 0 1610.6426 455.46875 C 1604.9153 455.3488 1598.4644 455.44181 1588.5254 455.40234 A 50.005 50.005 0 0 0 1588.3281 455.40234 C 1223.7046 455.40318 859.08163 455.39634 494.46289 455.40234 A 50.005 50.005 0 0 0 494.44141 455.40234 L 494.26953 455.40234 z M 1695.0527 1560.041 C 1695.6692 1559.5357 1695.4165 1559.7267 1695.4395 1559.707 C 1695.5009 1559.6543 1695.3846 1559.7559 1695.2578 1559.8652 C 1695.211 1559.9056 1695.1088 1559.9927 1695.0527 1560.041 z M 349.7793 1557.2285 C 349.94821 1557.388 350.05363 1557.488 350.08008 1557.5039 A 50.005 50.005 0 0 1 349.7793 1557.2285 z M 350.08008 1557.5039 C 350.26625 1557.6721 350.43752 1557.8272 350.50977 1557.8926 C 350.54589 1557.9253 350.80558 1558.1712 350.15039 1557.5605 C 350.12207 1557.5342 350.092 1557.5111 350.08008 1557.5039 z M 321.66992 1520.8281 A 50.005 50.005 0 0 1 321.61914 1520.7324 C 321.52611 1520.5538 321.51809 1520.5373 321.47266 1520.4492 C 321.48949 1520.4891 321.53555 1520.5819 321.66992 1520.8281 z M 321.47266 1520.4492 C 321.47012 1520.4432 321.46943 1520.438 321.46289 1520.4258 C 321.11479 1519.7741 321.27222 1520.0623 321.30273 1520.1211 C 321.3355 1520.1842 321.42 1520.3472 321.47266 1520.4492 z M 409.93164 461.75781 L 409.98047 461.9707 A 50.005 50.005 0 0 0 409.42188 462.28516 C 409.42138 462.28359 409.33789 462.01367 409.33789 462.01367 C 409.33789 462.01367 409.86013 461.78858 409.93164 461.75781 z M 418.94336 553.52734 C 418.94336 553.52734 420.01308 553.63755 420.15625 553.65234 A 50.005 50.005 0 0 0 422.21484 554.20898 C 420.70169 553.89346 418.94334 553.52734 418.94336 553.52734 z M 425.95898 554.99023 A 50.005 50.005 0 0 0 431.86133 555.62695 L 431.86719 555.65234 C 430.33679 555.56466 427.95299 555.40623 427.95312 555.40625 C 427.95315 555.40625 426.6464 555.13357 425.95898 554.99023 z M 494.45312 555.40234 A 50.005 50.005 0 0 0 494.625 555.40234 C 859.18801 555.39635 1223.7566 555.40318 1588.3281 555.40234 C 1598.5492 555.44161 1606.0717 555.40765 1608.1953 555.44531 C 1608.9083 555.47592 1610.3187 555.56486 1610.7012 555.59961 C 1611.3962 555.68318 1612.9733 555.89785 1612.1582 555.77148 C 1612.3692 555.80347 1612.58 555.83384 1612.791 555.86523 L 1612.7422 555.85938 C 1614.8929 556.18148 1618.2011 557.08694 1620.0664 557.83203 C 1620.0664 557.83203 1620.0684 557.83203 1620.0684 557.83203 A 50.005 50.005 0 0 0 1620.3203 557.93359 C 1620.0929 557.84305 1621.4752 558.4284 1621.2832 558.33789 A 50.005 50.005 0 0 0 1621.4512 558.41406 C 1622.5091 558.89002 1623.44 559.37027 1624.1445 559.76953 A 50.005 50.005 0 0 0 1624.1738 559.78711 L 1624.25 559.83008 C 1625.6275 560.61092 1627.7752 562.08269 1628.8066 562.91406 C 1628.8085 562.91553 1628.8126 562.91845 1628.8145 562.91992 A 50.005 50.005 0 0 0 1628.9473 563.02734 C 1630.7495 564.47937 1633.284 567.0741 1634.5977 568.76562 C 1634.5977 568.76562 1634.5996 568.76758 1634.5996 568.76758 A 50.005 50.005 0 0 0 1634.6562 568.8418 C 1635.2702 569.63175 1635.8806 570.49193 1636.4961 571.45312 A 50.005 50.005 0 0 0 1636.6191 571.64258 C 1636.111 570.85096 1636.7854 571.94111 1637.2715 572.74219 C 1638.1816 574.33261 1638.9634 575.97984 1639.5 577.36133 C 1639.5011 577.36415 1639.5028 577.36827 1639.5039 577.37109 L 1639.5195 577.41406 A 50.005 50.005 0 0 0 1639.5664 577.5332 C 1639.2153 576.63027 1639.6859 577.86729 1639.8223 578.22852 C 1639.8241 578.23332 1639.8225 578.2338 1639.8242 578.23828 C 1640.3657 579.7648 1640.7954 581.33691 1641.0684 582.66992 A 50.005 50.005 0 0 0 1641.0859 582.74805 C 1641.0955 582.79438 1641.1056 582.84039 1641.1152 582.88672 C 1641.1191 582.9074 1641.1266 582.95366 1641.1309 582.97656 C 1641.1905 583.2999 1641.2487 583.61729 1641.3086 583.93945 C 1641.3934 584.45767 1641.4692 584.92027 1641.5 585.12891 C 1641.5004 585.13131 1641.5016 585.14021 1641.502 585.14258 C 1641.6557 586.36766 1641.7488 587.39923 1641.793 588.12305 C 1641.793 588.12305 1641.793 588.125 1641.793 588.125 C 1641.8079 588.3788 1641.8558 589.60065 1641.8613 590.67969 C 1641.8613 874.79984 1641.8713 1158.9114 1641.8613 1443.0156 C 1641.8445 1453.0741 1641.7318 1461.3991 1641.8145 1459.3086 C 1641.7923 1459.6539 1641.7646 1460.0966 1641.7363 1460.5312 C 1641.699 1460.9687 1641.6612 1461.4139 1641.6309 1461.7559 C 1641.6247 1461.8251 1641.6189 1461.8913 1641.6133 1461.9551 C 1641.6088 1461.9954 1641.6041 1462.0358 1641.5996 1462.0762 C 1641.544 1462.5714 1641.4235 1463.4388 1641.2773 1464.2754 C 1641.1189 1465.1603 1640.4108 1467.9604 1640.1953 1468.6484 C 1639.8639 1469.6459 1639.5961 1470.3641 1639.4844 1470.6465 C 1639.4842 1470.6468 1639.4826 1470.652 1639.4824 1470.6523 C 1639.3702 1470.924 1639.1843 1471.3877 1639.0684 1471.6719 C 1639.0073 1471.8098 1638.9231 1471.9951 1638.7324 1472.4277 C 1638.1568 1473.6772 1637.566 1474.7892 1637.0605 1475.6348 L 1637.0254 1475.6953 A 50.005 50.005 0 0 0 1636.9141 1475.8809 C 1637.3001 1475.2332 1636.0509 1477.2304 1636.2891 1476.8711 A 50.005 50.005 0 0 0 1636.2285 1476.9609 L 1636.125 1477.1191 C 1634.9142 1478.9495 1633.0795 1481.1728 1631.2227 1482.9629 C 1630.6882 1483.4698 1630.3203 1483.8084 1630.2051 1483.9102 A 50.005 50.005 0 0 0 1630.1289 1483.9785 C 1630.0972 1484.0066 1630.0649 1484.0344 1630.0332 1484.0625 C 1630.0106 1484.082 1629.9801 1484.1093 1629.9551 1484.1309 C 1629.826 1484.2421 1629.7018 1484.3505 1629.5664 1484.4668 C 1629.5492 1484.4816 1629.5324 1484.4935 1629.5156 1484.5078 A 50.005 50.005 0 0 0 1629.4746 1484.543 C 1626.9476 1486.6714 1622.7028 1489.155 1619.7266 1490.2969 C 1618.8664 1490.6074 1617.3143 1491.121 1617.6836 1491.0098 A 50.005 50.005 0 0 0 1617.6289 1491.0254 L 1617.3125 1491.1211 A 50.005 50.005 0 0 0 1617.2793 1491.1328 C 1617.2956 1491.1279 1616.7281 1491.2843 1617.1934 1491.1582 C 1617.1426 1491.1724 1617.092 1491.1872 1617.041 1491.2012 C 1617.0306 1491.2047 1616.8643 1491.2446 1616.8359 1491.252 C 1616.5704 1491.3212 1616.0745 1491.451 1615.7695 1491.5312 C 1613.8289 1492.0102 1611.2739 1492.4139 1608.7422 1492.541 C 1607.6494 1492.5756 1606.4391 1492.6 1607.2031 1492.5977 C 1493.0013 1492.6024 1378.793 1492.5973 1264.5898 1492.5977 L 1264.5898 1043.6445 L 757.54297 1043.6445 L 757.54297 1066.127 L 757.54297 1492.5996 C 659.40702 1492.5986 561.27623 1492.5991 463.13867 1492.5996 C 452.90046 1492.57 444.95114 1492.6207 439.85156 1492.5625 C 439.18584 1492.5303 438.0678 1492.4729 439.00977 1492.5371 L 439.04297 1492.541 C 438.79442 1492.5239 438.54547 1492.5065 438.29688 1492.4902 A 50.005 50.005 0 0 0 438.26758 1492.4883 C 438.23777 1492.4863 436.78679 1492.3512 435.93555 1492.2422 C 435.44416 1492.1706 434.39206 1492.0022 434.2832 1491.9824 A 50.005 50.005 0 0 0 434.16602 1491.9629 L 434.1582 1491.9609 C 431.05369 1491.3981 426.11895 1489.571 423.23242 1487.8691 C 423.2312 1487.8684 423.22398 1487.8641 423.22266 1487.8633 C 423.08645 1487.7818 422.84841 1487.638 422.70898 1487.5547 C 421.08983 1486.5584 419.34056 1485.2752 417.86523 1483.9727 L 417.85938 1483.9688 C 417.79958 1483.9159 417.73953 1483.8633 417.67969 1483.8105 C 417.67191 1483.8036 417.62993 1483.7637 417.61914 1483.7539 C 417.54328 1483.6852 417.53555 1483.6791 417.46484 1483.6152 C 416.72099 1482.9206 416.28725 1482.4835 416.20312 1482.3984 C 416.17771 1482.3714 416.11924 1482.3082 416.0957 1482.2832 C 415.87962 1482.0534 415.53015 1481.69 415.31836 1481.4668 C 414.64391 1480.7154 414.01455 1479.9927 413.82031 1479.75 A 50.005 50.005 0 0 0 413.72852 1479.6348 C 413.64405 1479.5298 413.55926 1479.4251 413.47461 1479.3203 C 413.96164 1479.9259 413.05711 1478.7812 412.61523 1478.1797 A 50.005 50.005 0 0 0 412.59961 1478.1562 C 412.5673 1478.1123 412.53429 1478.0693 412.50195 1478.0254 C 412.50015 1478.0229 412.49985 1478.0201 412.49805 1478.0176 C 411.57375 1476.7126 410.76347 1475.3874 410.14453 1474.2227 C 410.09318 1474.1236 410.10689 1474.1476 410.05664 1474.0508 C 410.05124 1474.0404 410.03143 1474.0041 410.02734 1473.9961 C 409.96392 1473.8704 409.90154 1473.7447 409.83789 1473.6191 A 50.005 50.005 0 0 0 409.81641 1473.5801 C 409.10196 1472.1738 408.55768 1470.8873 408.01953 1469.3105 A 50.005 50.005 0 0 0 407.96289 1469.1504 C 407.13747 1466.7308 406.16143 1461.3716 406.14453 1457.7988 C 406.13355 1176.3301 406.14071 894.8556 406.13672 613.37109 L 406.13672 613.36914 L 406.13672 613.17578 C 406.1797 601.7632 406.1083 592.77487 406.17969 588.75195 L 406.17969 588.7168 L 406.18164 588.67773 C 406.19447 588.49652 406.27278 587.41481 406.3457 586.50977 C 406.40213 585.93494 406.43961 585.58387 406.49414 585.18555 C 406.49473 585.1813 406.49551 585.18001 406.49609 585.17578 C 406.4969 585.16988 406.49723 585.16221 406.49805 585.15625 C 406.64117 584.12472 406.75528 583.49466 406.91211 582.74805 A 50.005 50.005 0 0 0 406.94727 582.57422 L 406.94922 582.56641 C 407.11502 581.77703 407.71521 579.59821 407.91211 579.01562 L 407.93164 578.95703 A 50.005 50.005 0 0 0 407.96094 578.875 C 408.29964 577.8707 408.19246 578.17722 408.38867 577.66602 A 50.005 50.005 0 0 0 408.4668 577.46094 C 409.21206 575.51369 410.88513 572.32802 412.03906 570.64062 C 412.03906 570.64062 412.03906 570.63867 412.03906 570.63867 A 50.005 50.005 0 0 0 412.0957 570.55664 C 412.26292 570.31194 413.01153 569.27656 413.1875 569.04688 A 50.005 50.005 0 0 0 413.27344 568.93555 C 415.57296 565.93022 420.88573 561.39442 424.04492 559.66602 A 50.005 50.005 0 0 0 424.18555 559.58789 L 424.19531 559.58398 C 424.22785 559.56699 426.18146 558.58335 426.15039 558.59766 A 50.005 50.005 0 0 0 426.30859 558.52344 L 426.31445 558.52148 C 426.40533 558.47978 427.76941 557.89786 428.46094 557.62891 C 429.37586 557.28442 430.62269 556.87777 432.0957 556.49414 C 432.19988 556.46851 432.20291 556.46793 432.30273 556.44336 C 432.3484 556.43212 432.4236 556.41247 432.46484 556.40234 C 432.4707 556.40096 432.47656 556.39981 432.48242 556.39844 C 432.48738 556.39722 432.49691 556.39577 432.50195 556.39453 A 50.005 50.005 0 0 0 432.56836 556.37891 C 433.60298 556.13403 435.10073 555.86097 436.81445 555.6582 C 437.18629 555.62088 437.56904 555.58289 437.89258 555.55078 C 437.94455 555.54562 438.00293 555.5399 438.05078 555.53516 C 438.37087 555.51123 438.69173 555.48817 439.01172 555.46289 A 50.005 50.005 0 0 0 439.0625 555.45703 C 438.60665 555.49352 439.20342 555.46162 439.68359 555.43945 L 439.72656 555.4375 A 50.005 50.005 0 0 0 440.14062 555.42578 C 440.81718 555.40264 441.28926 555.40535 440.57422 555.4082 L 494.45312 555.40234 z M 432.90039 555.66602 A 50.005 50.005 0 0 0 434.24609 555.68555 C 433.60637 555.69739 435.07035 555.74815 432.99609 555.72266 C 432.97476 555.7224 432.8964 555.71546 432.87109 555.71484 C 432.87173 555.71376 432.89971 555.66718 432.90039 555.66602 z M 431.96484 556.51953 C 431.91746 556.53071 431.89276 556.53705 431.69336 556.58203 C 431.55704 556.61278 431.43675 556.64297 430.81445 556.77148 C 430.5033 556.83574 430.27907 556.90362 428.72461 557.15625 C 428.58267 557.17932 428.00855 557.22597 427.62891 557.26758 A 50.005 50.005 0 0 0 431.96484 556.51953 z M 425.01953 557.53125 C 424.03221 557.62511 422.72458 557.76367 422.72461 557.76367 C 422.72461 557.76367 421.83459 557.682 421.68164 557.66797 A 50.005 50.005 0 0 0 425.01953 557.53125 z M 1740.127 570.70312 C 1740.1388 570.92003 1740.1463 570.83162 1740.1582 571.08789 C 1740.1935 571.84788 1740.1142 573.76412 1740.0547 575.56641 C 1740.054 575.56649 1740.0182 575.57023 1740.0176 575.57031 A 50.005 50.005 0 0 0 1740.0508 570.71484 L 1740.127 570.70312 z M 1740.7852 574.11914 C 1740.8053 574.32808 1740.8216 574.48168 1740.8359 574.63086 L 1740.8887 575.46875 L 1740.8516 575.47266 A 50.005 50.005 0 0 0 1740.7852 574.11914 z M 1740.8633 574.91406 C 1740.8742 575.02781 1740.916 575.46484 1740.916 575.46484 L 1740.8965 575.4668 C 1740.8805 575.19877 1740.8786 575.16807 1740.8633 574.91406 z M 1641.623 585.16406 L 1641.6309 585.16406 A 50.005 50.005 0 0 0 1641.707 585.45898 A 50.005 50.005 0 0 0 1641.709 585.51367 C 1641.6812 585.39967 1641.6416 585.24491 1641.623 585.16406 z M 1641.5195 585.25586 A 50.005 50.005 0 0 0 1641.7227 586.41797 A 50.005 50.005 0 0 0 1641.7246 586.48633 C 1641.6439 586.01137 1641.5505 585.46322 1641.541 585.40039 C 1641.5255 585.29838 1641.5285 585.32016 1641.5254 585.29883 C 1641.5252 585.29722 1641.5237 585.29068 1641.5234 585.28906 C 1641.5226 585.2835 1641.5199 585.25831 1641.5195 585.25586 z M 1641.7168 585.49219 A 50.005 50.005 0 0 0 1642.1504 587.03906 L 1642.1309 587.04297 C 1642.0901 586.88494 1641.9263 586.38799 1641.8906 586.25391 C 1641.7672 585.78949 1641.777 585.79236 1641.7188 585.55469 L 1641.7168 585.49219 z M 1641.748 586.55273 A 50.005 50.005 0 0 0 1641.8516 587.07422 C 1641.8515 587.07422 1641.8242 587.07812 1641.8242 587.07812 C 1641.8242 587.07825 1641.7787 586.80345 1641.752 586.64648 L 1641.748 586.55273 z M 803.99023 1088.6113 L 1218.1426 1088.6113 L 1218.1426 1489.5625 L 803.99023 1489.5625 L 803.99023 1088.6113 z M 976.32227 1145.6406 L 976.32227 1179.2773 L 976.32227 1257.3613 L 895.66602 1257.3613 L 860.92188 1257.3613 L 860.92188 1324.6367 L 895.66602 1324.6367 L 976.32227 1324.6367 L 976.32227 1402.7246 L 976.32227 1436.3574 L 1045.8086 1436.3574 L 1045.8086 1402.7246 L 1045.8086 1324.6367 L 1126.4668 1324.6367 L 1161.2109 1324.6367 L 1161.2109 1257.3613 L 1126.4668 1257.3613 L 1045.8086 1257.3613 L 1045.8086 1179.2773 L 1045.8086 1145.6406 L 976.32227 1145.6406 z M 383.5957 1450.2168 L 393.65039 1455.4883 C 393.65039 1455.4883 392.70787 1456.1738 392.68359 1456.1914 C 388.14422 1453.2069 383.5957 1450.2168 383.5957 1450.2168 z M 1641.791 1460.1484 A 50.005 50.005 0 0 0 1641.7812 1461.1816 L 1641.7695 1461.1797 C 1641.7764 1460.6303 1641.7845 1460.2917 1641.791 1460.1484 z M 1641.8965 1464.4961 A 50.005 50.005 0 0 0 1641.9727 1465.4629 C 1641.9567 1465.492 1641.9569 1465.4933 1641.9414 1465.5215 C 1641.9277 1465.2453 1641.9182 1464.9456 1641.8965 1464.4961 z M 1741.6406 1465.2305 C 1741.6404 1465.2333 1741.6498 1465.1548 1741.6094 1465.6719 C 1741.5993 1465.8011 1741.588 1465.9543 1741.5469 1466.3965 C 1741.5263 1466.6176 1741.5024 1466.8882 1741.4297 1467.5156 C 1741.4248 1467.5581 1741.3737 1467.8271 1741.3613 1467.9082 C 1741.3472 1468.5905 1741.3299 1469.0109 1741.3164 1469.291 C 1741.2569 1470.5269 1741.2395 1470.5333 1741.2266 1470.7012 C 1741.2007 1471.0369 1741.2009 1471.0303 1741.2012 1471.0273 C 1741.2017 1471.0215 1741.2186 1470.8261 1741.2402 1470.582 C 1741.2835 1470.0938 1741.3492 1469.3419 1741.4219 1468.4727 A 50.005 50.005 0 0 0 1741.4883 1467.6016 C 1741.5399 1466.8195 1741.5856 1466.1067 1741.6152 1465.6445 C 1741.63 1465.4135 1741.641 1465.2248 1741.6406 1465.2305 z M 1740.9629 1470.168 C 1740.696 1471.667 1740.4082 1473.3146 1740.4082 1473.3145 C 1740.4082 1473.3144 1739.9613 1474.6362 1739.7129 1475.3691 A 50.005 50.005 0 0 0 1740.9629 1470.168 z M 410.3457 1474.6309 C 410.31896 1474.5639 410.11338 1474.1018 410.8418 1475.6582 C 410.87427 1475.7276 410.94857 1475.8938 411.00195 1476.0117 C 411.00195 1476.0117 411.00195 1476.0137 411.00195 1476.0137 C 411.01106 1476.0338 411.02187 1476.0582 411.0293 1476.0742 C 411.03217 1476.078 411.02842 1476.0743 411.03125 1476.0781 C 411.03969 1476.0964 411.05351 1476.127 411.0625 1476.1465 C 411.07396 1476.1606 411.10048 1476.192 411.10938 1476.2031 C 411.87317 1477.1568 411.84638 1477.1441 411.94727 1477.2773 C 412.1125 1477.4956 412.03263 1477.3914 412.06836 1477.4395 A 50.005 50.005 0 0 0 411.63086 1476.8457 C 411.37185 1476.5069 412.08025 1477.4384 411.75 1476.998 L 412.22656 1477.6523 C 412.22623 1477.6519 412.24194 1477.6735 412.24219 1477.6738 L 412.23828 1477.6777 A 50.005 50.005 0 0 0 412.14258 1477.543 A 50.005 50.005 0 0 0 411.09766 1476.2246 C 411.17803 1476.4003 411.21498 1476.4722 411.35547 1476.793 C 411.38339 1476.8567 411.52069 1477.256 411.57812 1477.4062 A 50.005 50.005 0 0 0 411.05469 1476.1719 A 50.005 50.005 0 0 0 410.54297 1475.5605 L 410.56445 1475.5449 C 410.76702 1475.7888 410.89242 1475.9369 411.02344 1476.0977 A 50.005 50.005 0 0 0 410.99023 1476.0254 C 410.99023 1476.0254 410.99023 1476.0234 410.99023 1476.0234 A 50.005 50.005 0 0 0 410.9668 1475.9707 C 410.9668 1475.9707 410.96484 1475.9688 410.96484 1475.9688 A 50.005 50.005 0 0 0 410.3457 1474.6309 z M 410.5957 1475.5195 C 410.96818 1475.9789 410.82901 1475.8038 410.86133 1475.8418 C 410.82547 1475.801 410.82626 1475.8101 410.95508 1475.9785 C 410.78498 1475.765 410.70683 1475.6674 410.5918 1475.5234 L 410.5957 1475.5195 z M 1629.5664 1484.4824 A 50.005 50.005 0 0 0 1628.1074 1485.8789 C 1628.178 1485.8057 1628.404 1485.5555 1628.4355 1485.5254 C 1628.8286 1485.1509 1628.9887 1485.0043 1629.1211 1484.8828 C 1629.5328 1484.5051 1629.5221 1484.5205 1629.5664 1484.4824 z M 1625.4707 1488.7129 A 50.005 50.005 0 0 0 1624.4219 1489.9746 C 1624.4166 1489.975 1624.4154 1489.9761 1624.4102 1489.9766 C 1624.4099 1489.9764 1624.3437 1489.9219 1624.3438 1489.9219 C 1624.3436 1489.9219 1625.0564 1489.1624 1625.4707 1488.7129 z M 324.04102 1524.5879 A 50.005 50.005 0 0 0 326.67578 1528.0918 A 50.005 50.005 0 0 0 326.71875 1528.1895 C 326.20057 1527.5845 325.44921 1526.707 325.44922 1526.707 C 325.4493 1526.7071 324.70156 1525.5743 324.04102 1524.5879 z M 326.80273 1528.2461 A 50.005 50.005 0 0 0 329.10156 1530.8301 C 329.1001 1530.8327 329.05604 1530.9136 329.05469 1530.916 C 328.37223 1530.1193 327.78103 1529.4288 326.82812 1528.3164 C 326.82185 1528.2991 326.80924 1528.264 326.80273 1528.2461 z M 327.03711 1528.8926 A 50.005 50.005 0 0 0 328.53125 1531.8672 C 328.53123 1531.8672 328.52736 1531.8789 328.52734 1531.8789 C 328.01778 1530.9725 327.40233 1529.8984 327.40234 1529.8984 C 327.40235 1529.8984 327.09775 1529.0597 327.03711 1528.8926 z M 329.74219 1534.0176 C 330.04405 1534.4903 330.13506 1534.634 330.36133 1534.9863 C 330.12167 1534.6252 330.76192 1535.6532 329.91992 1534.332 C 329.89488 1534.2927 329.784 1534.0877 329.74219 1534.0176 z "
       transform="translate(0,-995.63783)" />
  </g>
</svg>
