<?xml version="1.0" encoding="UTF-8" standalone="no"?>
<svg
   xmlns:dc="http://purl.org/dc/elements/1.1/"
   xmlns:cc="http://creativecommons.org/ns#"
   xmlns:rdf="http://www.w3.org/1999/02/22-rdf-syntax-ns#"
   xmlns:svg="http://www.w3.org/2000/svg"
   xmlns="http://www.w3.org/2000/svg"
   xmlns:sodipodi="http://sodipodi.sourceforge.net/DTD/sodipodi-0.dtd"
   xmlns:inkscape="http://www.inkscape.org/namespaces/inkscape"
   version="1.1"
   id="svg3891"
   height="2048"
   width="2048"
   sodipodi:docname="gateway-parallel-start.svg"
   inkscape:version="1.0.1 (3bc2e813f5, 2020-09-07)">
  <sodipodi:namedview
     pagecolor="#ffffff"
     bordercolor="#666666"
     borderopacity="1"
     objecttolerance="10"
     gridtolerance="10"
     guidetolerance="10"
     inkscape:pageopacity="0"
     inkscape:pageshadow="2"
     inkscape:window-width="1600"
     inkscape:window-height="837"
     id="namedview8"
     showgrid="false"
     inkscape:zoom="0.33544922"
     inkscape:cx="1024"
     inkscape:cy="1024"
     inkscape:window-x="-8"
     inkscape:window-y="-8"
     inkscape:window-maximized="1"
     inkscape:current-layer="svg3891" />
  <defs
     id="defs3893" />
  <metadata
     id="metadata3896">
    <rdf:RDF>
      <cc:Work
         rdf:about="">
        <dc:format>image/svg+xml</dc:format>
        <dc:type
           rdf:resource="http://purl.org/dc/dcmitype/StillImage" />
        <dc:title></dc:title>
      </cc:Work>
    </rdf:RDF>
  </metadata>
  <g
     transform="translate(0,995.63783)"
     id="layer1">
    <g
       id="layer1-6"
       transform="matrix(96.752895,0,0,96.752895,55.328158,-100816.34)">
      <path
         id="rect3092"
         d="m 0.67810833,1041.7437 c -0.2963131,0.2963 -0.29493424,0.7989 0.001379,1.0952 l 8.78496731,8.7849 c 0.2963131,0.2964 0.7988755,0.2977 1.0951885,0 l 8.786353,-8.7863 c 0.296313,-0.2963 0.294934,-0.7989 -0.0014,-1.0952 l -8.784967,-8.785 c -0.296313,-0.2963 -0.7988753,-0.2977 -1.0951884,-0 l -8.78635327,8.7864 z m 1.07861357,0.5483 8.2546441,-8.2547 8.254638,8.2547 -8.254645,8.2546 -8.2546371,-8.2546 z"
         style="color:#000000;font-style:normal;font-variant:normal;font-weight:normal;font-stretch:normal;font-size:medium;line-height:normal;font-family:sans-serif;text-indent:0;text-align:start;text-decoration:none;text-decoration-line:none;text-decoration-style:solid;text-decoration-color:#000000;letter-spacing:normal;word-spacing:normal;text-transform:none;direction:ltr;block-progression:tb;writing-mode:lr-tb;baseline-shift:baseline;text-anchor:start;white-space:normal;clip-rule:nonzero;display:inline;overflow:visible;visibility:visible;opacity:1;isolation:auto;mix-blend-mode:normal;color-interpolation:sRGB;color-interpolation-filters:linearRGB;solid-color:#000000;solid-opacity:1;fill:#000000;fill-opacity:1;fill-rule:nonzero;stroke:none;stroke-width:1.14980412;stroke-linecap:butt;stroke-linejoin:miter;stroke-miterlimit:4;stroke-dasharray:none;stroke-dashoffset:0;stroke-opacity:1;color-rendering:auto;image-rendering:auto;shape-rendering:auto;text-rendering:auto;enable-background:accumulate" />
    </g>
  </g>
  <path
     id="path4481"
     d="m 1015.8954,540.58197 c -189.86014,-0.62068 -372.03938,120.16745 -444.0987,292.954 -75.8598,171.10503 -36.44426,383.66013 96.25263,517.10583 127.62555,135.2618 337.90267,184.9084 514.01027,121.6212 182.5133,-61.1929 317.2554,-237.6711 324.58,-427.6128 12.2852,-186.64148 -99.2394,-372.84775 -270.0031,-454.14817 -66.8721,-32.85598 -141.5317,-49.9868 -216.2546,-49.88261 -1.4959,-0.0199 -2.9916,-0.0325 -4.4865,-0.0374 z m 13.3443,51.81191 c 185.8468,1.00451 360.8815,133.37891 408.946,310.45341 51.0738,169.42341 -18.009,365.58391 -166.2834,465.92951 C 1117.8799,1480.2415 889.47338,1472.177 744.02549,1350.0384 597.47675,1234.995 545.01991,1022.1995 620.20934,853.45055 685.18857,697.59188 849.17925,590.35339 1020.3819,592.4455 c 2.9549,-0.0505 5.9079,-0.0675 8.8578,-0.0516 z M 944.58465,812.70433 V 945.3791 H 809.83401 v 149.2591 h 134.75064 v 132.6747 h 151.59445 v -132.6747 h 134.7507 V 945.37809 H 1096.1791 V 812.70433 Z m 25.26575,24.87652 h 101.063 v 132.67477 h 134.7506 v 99.50598 h -134.7506 v 132.6747 H 969.8504 V 1068.9842 H 835.09977 V 970.25562 H 969.8504 Z"
     style="color:#000000;font-style:normal;font-variant:normal;font-weight:normal;font-stretch:normal;font-size:medium;line-height:normal;font-family:sans-serif;text-indent:0;text-align:start;text-decoration:none;text-decoration-line:none;text-decoration-style:solid;text-decoration-color:#000000;letter-spacing:normal;word-spacing:normal;text-transform:none;writing-mode:lr-tb;direction:ltr;baseline-shift:baseline;text-anchor:start;white-space:normal;clip-rule:nonzero;display:inline;overflow:visible;visibility:visible;opacity:1;isolation:auto;mix-blend-mode:normal;color-interpolation:sRGB;color-interpolation-filters:linearRGB;solid-color:#000000;solid-opacity:1;fill:#000000;fill-opacity:1;fill-rule:nonzero;stroke:none;stroke-width:100;stroke-linecap:butt;stroke-linejoin:miter;stroke-miterlimit:4;stroke-dasharray:none;stroke-dashoffset:0;stroke-opacity:1;color-rendering:auto;image-rendering:auto;shape-rendering:auto;text-rendering:auto;enable-background:accumulate" />
</svg>
