<?xml version="1.0" encoding="UTF-8" standalone="no"?>
<svg
   xmlns:dc="http://purl.org/dc/elements/1.1/"
   xmlns:cc="http://creativecommons.org/ns#"
   xmlns:rdf="http://www.w3.org/1999/02/22-rdf-syntax-ns#"
   xmlns:svg="http://www.w3.org/2000/svg"
   xmlns="http://www.w3.org/2000/svg"
   xmlns:sodipodi="http://sodipodi.sourceforge.net/DTD/sodipodi-0.dtd"
   xmlns:inkscape="http://www.inkscape.org/namespaces/inkscape"
   version="1.1"
   id="svg3891"
   height="2048"
   width="2048"
   sodipodi:docname="gateway-eventbased-start.svg"
   inkscape:version="1.0.1 (3bc2e813f5, 2020-09-07)">
  <sodipodi:namedview
     pagecolor="#ffffff"
     bordercolor="#666666"
     borderopacity="1"
     objecttolerance="10"
     gridtolerance="10"
     guidetolerance="10"
     inkscape:pageopacity="0"
     inkscape:pageshadow="2"
     inkscape:window-width="1600"
     inkscape:window-height="837"
     id="namedview8"
     showgrid="false"
     inkscape:zoom="0.33544922"
     inkscape:cx="1068.7162"
     inkscape:cy="1024"
     inkscape:window-x="-8"
     inkscape:window-y="-8"
     inkscape:window-maximized="1"
     inkscape:current-layer="svg3891"
     inkscape:document-rotation="0" />
  <defs
     id="defs3893" />
  <metadata
     id="metadata3896">
    <rdf:RDF>
      <cc:Work
         rdf:about="">
        <dc:format>image/svg+xml</dc:format>
        <dc:type
           rdf:resource="http://purl.org/dc/dcmitype/StillImage" />
        <dc:title />
      </cc:Work>
    </rdf:RDF>
  </metadata>
  <g
     transform="translate(0,995.63783)"
     id="layer1">
    <g
       id="layer1-6"
       transform="matrix(96.752895,0,0,96.752895,55.328158,-100816.34)">
      <path
         id="rect3092"
         d="m 0.67810833,1041.7437 c -0.2963131,0.2963 -0.29493424,0.7989 0.001379,1.0952 l 8.78496731,8.7849 c 0.2963131,0.2964 0.7988755,0.2977 1.0951885,0 l 8.786353,-8.7863 c 0.296313,-0.2963 0.294934,-0.7989 -0.0014,-1.0952 l -8.784967,-8.785 c -0.296313,-0.2963 -0.7988753,-0.2977 -1.0951884,-0 l -8.78635327,8.7864 z m 1.07861357,0.5483 8.2546441,-8.2547 8.254638,8.2547 -8.254645,8.2546 -8.2546371,-8.2546 z"
         style="color:#000000;font-style:normal;font-variant:normal;font-weight:normal;font-stretch:normal;font-size:medium;line-height:normal;font-family:sans-serif;text-indent:0;text-align:start;text-decoration:none;text-decoration-line:none;text-decoration-style:solid;text-decoration-color:#000000;letter-spacing:normal;word-spacing:normal;text-transform:none;direction:ltr;block-progression:tb;writing-mode:lr-tb;baseline-shift:baseline;text-anchor:start;white-space:normal;clip-rule:nonzero;display:inline;overflow:visible;visibility:visible;opacity:1;isolation:auto;mix-blend-mode:normal;color-interpolation:sRGB;color-interpolation-filters:linearRGB;solid-color:#000000;solid-opacity:1;fill:#000000;fill-opacity:1;fill-rule:nonzero;stroke:none;stroke-width:1.14980412;stroke-linecap:butt;stroke-linejoin:miter;stroke-miterlimit:4;stroke-dasharray:none;stroke-dashoffset:0;stroke-opacity:1;color-rendering:auto;image-rendering:auto;shape-rendering:auto;text-rendering:auto;enable-background:accumulate" />
    </g>
  </g>
  <path
     id="path4481"
     d="m 1022.1022,535.71477 c -188.54058,-2.58076 -370.20576,119.87749 -441.72108,295.64865 -74.69896,172.70078 -35.88627,387.23768 94.78004,521.92798 125.67255,136.5233 332.73234,186.6324 506.14524,122.755 179.7203,-61.7635 312.4002,-239.8874 319.6125,-431.6004 12.0972,-188.38219 -97.7208,-376.32498 -265.8713,-458.38361 -65.8439,-33.16105 -139.3709,-50.4538 -212.9454,-50.34762 z m 0,52.3094 c 186.2217,-3.26861 363.3306,131.73411 411.4109,313.2969 50.2921,171.00343 -17.7337,368.99283 -163.7393,470.27413 -151.6654,112.5042 -376.57631,104.3649 -519.79849,-18.9128 C 605.66913,1236.566 554.01417,1021.7858 628.05297,851.46315 692.22424,694.00539 853.30672,586.02534 1022.1022,588.02417 Z m 0,191.42791 c -76.19007,55.81758 -152.37827,111.63785 -228.56766,167.45648 29.10152,90.31524 58.20309,180.63024 87.30465,270.94534 94.17472,0 188.34941,0 282.52411,0 29.1016,-90.3151 58.2032,-180.6301 87.3048,-270.94534 -76.1876,-55.81885 -152.3762,-111.63765 -228.5648,-167.45648 z m 0,32.31535 c 66.0296,48.37562 132.0591,96.75131 198.0886,145.12694 -25.2207,78.27313 -50.4412,156.54603 -75.6619,234.81923 -81.617,0 -163.23406,0 -244.85113,0 -25.22162,-78.2732 -50.44225,-156.5461 -75.66284,-234.81923 66.02876,-48.37563 132.05757,-96.75132 198.08637,-145.12694 z"
     style="color:#000000;font-style:normal;font-variant:normal;font-weight:normal;font-stretch:normal;font-size:medium;line-height:normal;font-family:sans-serif;text-indent:0;text-align:start;text-decoration:none;text-decoration-line:none;text-decoration-style:solid;text-decoration-color:#000000;letter-spacing:normal;word-spacing:normal;text-transform:none;writing-mode:lr-tb;direction:ltr;baseline-shift:baseline;text-anchor:start;white-space:normal;clip-rule:nonzero;display:inline;overflow:visible;visibility:visible;opacity:1;isolation:auto;mix-blend-mode:normal;color-interpolation:sRGB;color-interpolation-filters:linearRGB;solid-color:#000000;solid-opacity:1;fill:#000000;fill-opacity:1;fill-rule:nonzero;stroke:none;stroke-width:99.9996;stroke-linecap:butt;stroke-linejoin:miter;stroke-miterlimit:4;stroke-dasharray:none;stroke-dashoffset:0;stroke-opacity:1;color-rendering:auto;image-rendering:auto;shape-rendering:auto;text-rendering:auto;enable-background:accumulate" />
</svg>
