<?xml version="1.0" encoding="UTF-8" standalone="no"?>
<svg
   xmlns:dc="http://purl.org/dc/elements/1.1/"
   xmlns:cc="http://creativecommons.org/ns#"
   xmlns:rdf="http://www.w3.org/1999/02/22-rdf-syntax-ns#"
   xmlns:svg="http://www.w3.org/2000/svg"
   xmlns="http://www.w3.org/2000/svg"
   xmlns:sodipodi="http://sodipodi.sourceforge.net/DTD/sodipodi-0.dtd"
   xmlns:inkscape="http://www.inkscape.org/namespaces/inkscape"
   width="2000"
   height="2000"
   viewBox="0 0 2000 2000"
   id="svg2"
   version="1.1"
   inkscape:version="1.0.1 (3bc2e813f5, 2020-09-07)"
   sodipodi:docname="call-user-activity1.svg">
  <defs
     id="defs4" />
  <sodipodi:namedview
     id="base"
     pagecolor="#ffffff"
     bordercolor="#666666"
     borderopacity="1.0"
     inkscape:pageopacity="0.0"
     inkscape:pageshadow="2"
     inkscape:zoom="0.4345"
     inkscape:cx="475.94533"
     inkscape:cy="1000"
     inkscape:document-units="px"
     inkscape:current-layer="layer1"
     showgrid="true"
     units="px"
     showguides="false"
     inkscape:window-width="1920"
     inkscape:window-height="1001"
     inkscape:window-x="-9"
     inkscape:window-y="-9"
     inkscape:window-maximized="1"
     inkscape:document-rotation="0">
    <inkscape:grid
       type="xygrid"
       id="grid4008"
       empspacing="20"
       dotted="false" />
  </sodipodi:namedview>
  <metadata
     id="metadata7">
    <rdf:RDF>
      <cc:Work
         rdf:about="">
        <dc:format>image/svg+xml</dc:format>
        <dc:type
           rdf:resource="http://purl.org/dc/dcmitype/StillImage" />
        <dc:title></dc:title>
        <cc:license
           rdf:resource="https://github.com/bpmn-io/bpmn-font/blob/master/LICENSE" />
        <dc:creator>
          <cc:Agent>
            <dc:title>Jörg Dotzki</dc:title>
          </cc:Agent>
        </dc:creator>
        <dc:subject>
          <rdf:Bag>
            <rdf:li>BPMN</rdf:li>
            <rdf:li>bpmn-io</rdf:li>
            <rdf:li>bpmn.io</rdf:li>
            <rdf:li>Font</rdf:li>
          </rdf:Bag>
        </dc:subject>
      </cc:Work>
    </rdf:RDF>
  </metadata>
  <g
     inkscape:label="Ebene 1"
     inkscape:groupmode="layer"
     id="layer1"
     transform="translate(0,947.63784)">
    <path
       style="color:#000000;font-style:normal;font-variant:normal;font-weight:normal;font-stretch:normal;font-size:medium;line-height:normal;font-family:sans-serif;text-indent:0;text-align:start;text-decoration:none;text-decoration-line:none;text-decoration-style:solid;text-decoration-color:#000000;letter-spacing:normal;word-spacing:normal;text-transform:none;direction:ltr;block-progression:tb;writing-mode:lr-tb;baseline-shift:baseline;text-anchor:start;white-space:normal;clip-rule:nonzero;display:inline;overflow:visible;visibility:visible;opacity:1;isolation:auto;mix-blend-mode:normal;color-interpolation:sRGB;color-interpolation-filters:linearRGB;solid-color:#000000;solid-opacity:1;fill:#000000;fill-opacity:1;fill-rule:nonzero;stroke:none;stroke-width:220;stroke-linecap:round;stroke-linejoin:miter;stroke-miterlimit:4;stroke-dasharray:none;stroke-dashoffset:0;stroke-opacity:1;color-rendering:auto;image-rendering:auto;shape-rendering:auto;text-rendering:auto;enable-background:accumulate"
       d="m 461.33789,-737.63867 c -230.50606,0 -421.33789,186.40896 -421.33789,416 l 0,748 c 0,229.59104 190.83183,416 421.33789,416 l 1077.32421,0 c 230.5061,0 421.3379,-186.40896 421.3379,-416 l 0,-748 c 0,-229.59104 -190.8318,-416 -421.3379,-416 l -1077.32421,0 z m 0,220 1077.32421,0 c 114.4556,0 201.3379,86.543 201.3379,196 l 0,748 c 0,109.45699 -86.8823,196 -201.3379,196 l -1077.32421,0 C 346.88231,622.36133 260,535.81832 260,426.36133 l 0,-748 c 0,-109.457 86.88231,-196 201.33789,-196 z"
       id="rect4187"
       inkscape:connector-curvature="0" />
    <path
       id="path8979-3"
       d="m 666.98585,-453.57033 c -102.198,0 -175.30802,75.91605 -175.51308,162.3896 v 0.025 0.024 c 0.006,26.15094 7.32948,53.75031 18.77071,78.64399 8.26119,17.97459 18.53232,34.49935 31.04807,47.73714 -74.38341,24.59029 -161.52723,65.06157 -205.5737,144.86517 l -2.3735,4.30087 V 242.75037 H 1000.6274 V -15.5846 l -2.37353,-4.30087 C 954.84091,-98.54125 869.58278,-138.9562 795.91838,-163.64851 c 35.96087,-35.33556 46.56902,-80.94354 46.58055,-127.48326 v -0.024 -0.025 c -0.20505,-86.47354 -73.31505,-162.38959 -175.51308,-162.38959 z m -69.7785,92.08079 c 4.72398,0.0115 9.91048,0.16396 15.62819,0.4896 45.55573,2.59461 60.88788,10.51847 72.67334,18.03362 11.7854,7.51516 20.09361,14.66907 51.23973,15.54645 h 0.009 0.0104 c 24.27107,-0.87726 35.94342,-5.05869 44.314,-9.79527 3.39187,-1.91931 6.23995,-3.91456 9.15847,-5.81972 7.71419,15.97764 11.85665,33.64005 11.90358,51.91941 -0.0161,52.05136 -9.27677,88.50321 -58.66765,118.33209 l 4.83147,35.18922 c 10.28032,3.01666 20.90675,6.32667 31.69212,9.9563 1.50625,6.07197 3.24654,14.03578 4.4171,22.50203 1.22624,8.86969 1.70853,18.09812 0.95253,25.02729 -0.75601,6.92917 -2.9824,10.66981 -3.37331,11.0476 -25.1042,24.25803 -69.66632,38.40532 -114.86608,38.40532 -45.19975,0 -89.76186,-14.14729 -114.86604,-38.40532 -0.39092,-0.37779 -2.61735,-4.11843 -3.37335,-11.0476 -0.756,-6.92917 -0.27372,-16.1576 0.95256,-25.02729 1.17696,-8.513 2.93111,-16.52375 4.44299,-22.60757 10.67765,-3.58807 21.19728,-6.86334 31.37798,-9.85076 l 2.88018,-37.70577 c -2.34515,-2.90621 -4.73467,-4.83148 -7.58666,-6.89902 -11.02315,-7.99115 -24.3911,-25.571 -33.83367,-46.11601 -9.43919,-20.53768 -15.28721,-44.01274 -15.29602,-62.80486 0.0587,-22.52977 6.33314,-44.12501 17.85756,-62.77875 2.06203,-0.74166 4.23643,-1.52552 6.68026,-2.30221 8.59415,-2.73138 20.37104,-5.33851 40.84158,-5.28878 z m -87.24986,250.42848 c -0.0363,0.25559 -0.0771,0.50505 -0.11259,0.7616 -1.49131,10.78659 -2.36761,22.52768 -1.08542,34.27968 1.28218,11.752 4.49122,24.40476 14.97063,34.53093 35.76967,34.564138 89.90358,49.827209 143.39987,49.827209 53.49626,0 107.63019,-15.263071 143.39984,-49.827209 10.47943,-10.12617 13.6885,-22.77893 14.97066,-34.53093 1.28216,-11.75205 0.40591,-23.49309 -1.08541,-34.27968 -0.0294,-0.21258 -0.0635,-0.41912 -0.0934,-0.63104 54.3821,23.04486 106.94676,56.04851 135.9517,105.325065 V 203.75641 H 863.71184 V 56.13643 H 823.3578 V 203.75641 H 509.74919 V 56.13643 H 469.39514 V 203.75641 H 373.6984 V -5.605435 C 402.75799,-54.97491 455.46607,-88.01037 509.95749,-111.06106 Z"
       style="color:#000000;font-style:normal;font-variant:normal;font-weight:normal;font-stretch:normal;font-size:medium;line-height:normal;font-family:sans-serif;text-indent:0;text-align:start;text-decoration:none;text-decoration-line:none;text-decoration-style:solid;text-decoration-color:#000000;letter-spacing:normal;word-spacing:normal;text-transform:none;writing-mode:lr-tb;direction:ltr;baseline-shift:baseline;text-anchor:start;white-space:normal;clip-rule:nonzero;display:inline;overflow:visible;visibility:visible;opacity:1;isolation:auto;mix-blend-mode:normal;color-interpolation:sRGB;color-interpolation-filters:linearRGB;solid-color:#000000;solid-opacity:1;fill:#000000;fill-opacity:1;fill-rule:evenodd;stroke:none;stroke-width:70.0002;stroke-linecap:round;stroke-linejoin:miter;stroke-miterlimit:2.3;stroke-dasharray:none;stroke-dashoffset:0;stroke-opacity:1;color-rendering:auto;image-rendering:auto;shape-rendering:auto;text-rendering:auto;enable-background:accumulate" />
  </g>
</svg>
